<?xml version="1.0" encoding="utf-8"?>
<!-- Generator: Adobe Illustrator 16.0.3, SVG Export Plug-In . SVG Version: 6.00 Build 0)  -->
<!DOCTYPE svg PUBLIC "-//W3C//DTD SVG 1.0//EN" "http://www.w3.org/TR/2001/REC-SVG-20010904/DTD/svg10.dtd">
<svg version="1.0" id="Layer_1" xmlns="http://www.w3.org/2000/svg" xmlns:xlink="http://www.w3.org/1999/xlink" x="0px" y="0px"
	 width="800px" height="600px" viewBox="0 0 800 600" enable-background="new 0 0 800 600" xml:space="preserve">
<g id="head">
	<g>
		<rect fill="#2979ff" d="rect3249" x="369.779" y="49.241" width="57.902" height="19.062"/>
		<path fill="#2979ff" d="M463.496,88.532h-0.047v-0.801c-5.428-17.397-20.143-19.333-35.96-19.42h-11.141h-1.21H381.66
			h-0.22h-12.357c-15.103,0.255-28.154,3.417-32.945,18.282v3.413h-0.121v63.724h0.121v2.008
			c4.791,14.864,17.842,18.026,32.945,18.282h12.357h0.22h34.688c0.102-0.159,0.189-0.33,0.288-0.49h10.853
			c15.817-0.083,30.532-1.91,35.96-18.33v-0.487h0.047V88.532L463.496,88.532z"/>
		<rect  fill="#2979ff" id="rect3253" x="360.769" y="172.005" width="78.003" height="15.583"/>
	</g>
</g>
<g id="body">
	<path fill="#2979ff" d="M502.057,348.807L471.058,197.39c0-6.164-5.539-11.237-12.668-11.917l-0.016-0.083l-0.082,0.071
		c-0.504-0.045-1.014-0.071-1.533-0.071H342.983c-0.247,0-0.488,0.021-0.732,0.031l-0.035-0.03l-0.006,0.032
		c-7.534,0.339-13.524,5.56-13.524,11.968l-30.029,151.417L502.057,348.807L502.057,348.807z"/>
</g>
<g id="left_arm">
	<path fill="#2979ff" d="M546.394,327.725l-9.538-55.614l-29.272-57.839c0,0-13.729-21.197-36.509-16.802l27.888,136.552
		L546.394,327.725z"/>
	<g id="cuffs_1_">
		<g>
			<path fill="#2979ff" d="M546.368,327.428c-0.601-4.091-11.732-6.051-24.863-4.376c-13.131,1.676-23.287,6.349-22.688,10.438
				c0.601,4.092,11.731,6.05,24.862,4.376C536.811,336.19,546.969,331.517,546.368,327.428z"/>
		</g>
	</g>
	<g id="arm_2_">
		<g>
			<path fill="#2979ff" d="M540.196,326.81c0,0-18.124-6.167-34.812,4.82l2.422,25.179l36.193-5.318L540.196,326.81z"/>
		</g>

	</g>
	<g id="left_hand">
		<path fill="#2979ff" d="M526.479,342.548c-17.69,2.412-30.077,18.707-27.664,36.396
			c1.334,9.802,6.934,17.967,14.668,22.896c0.426,0.049,4.062,0.868,5.953-0.259c5.945-3.544-0.979-12.219-3.712-19.549
			c-1.128-1.895-1.901-4.043-2.217-6.363c-1.264-9.259,5.219-17.79,14.48-19.052c0.133-0.02,0.267-0.03,0.4-0.043
			c0.134-0.021,0.267-0.047,0.397-0.065c9.261-1.262,17.788,5.222,19.051,14.479c0.318,2.322,0.146,4.6-0.433,6.728
			c-0.67,7.791-5.021,18.005,1.651,19.829c2.126,0.58,5.411-1.182,5.809-1.347c6.134-6.816,9.343-16.185,8.007-25.984
			C560.462,352.525,544.169,340.138,526.479,342.548z"/>
	</g>
</g>
<g>
	<path fill="#2979ff" d="M301.039,334.5l27.888-136.552c-22.779-4.396-36.509,16.802-36.509,16.802l-29.272,57.839l-9.539,55.614
		L301.039,334.5z"/>
	<g id="cuffs_2_">
		<g>
			<path fill="#2979ff" d="M278.495,323.53c-13.131-1.675-24.264,0.285-24.863,4.376c-0.601,4.089,9.558,8.763,22.688,10.438
				c13.131,1.674,24.263-0.284,24.863-4.376C301.782,329.878,291.626,325.206,278.495,323.53z"/>
		</g>
	</g>
	<g id="arm_3_">
		<g>
			<path fill="#2979ff" d="M259.804,327.288l-3.803,24.68l36.193,5.319l2.422-25.179
				C277.928,321.121,259.804,327.288,259.804,327.288z"/>
		</g>
	</g>
	<g id="right_hand">
		<path fill="#2979ff" d="M273.521,343.026c17.691,2.411,30.078,18.707,27.665,36.396
			c-1.334,9.802-6.934,17.967-14.668,22.896c-0.426,0.049-4.062,0.867-5.954-0.26c-5.945-3.544,0.98-12.219,3.712-19.549
			c1.128-1.894,1.902-4.043,2.217-6.363c1.264-9.259-5.219-17.789-14.48-19.052c-0.133-0.019-0.267-0.029-0.401-0.043
			c-0.133-0.021-0.266-0.047-0.397-0.064c-9.261-1.263-17.788,5.221-19.051,14.479c-0.318,2.323-0.146,4.601,0.433,6.729
			c0.67,7.791,5.021,18.005-1.652,19.829c-2.126,0.579-5.411-1.183-5.808-1.348c-6.134-6.815-9.343-16.184-8.007-25.983
			C239.538,353.004,255.831,340.616,273.521,343.026z"/>
	</g>
</g>
<g>
	<path fill="#2979ff" d="M466.715,348.807h-62.112H300.792v66.753v15.492v74.104v1.553v47.574h95.605v-47.574v-1.553v-71.391
		c1.227,0.377,2.532,0.586,3.893,0.586c1.518,0,2.966-0.267,4.312-0.729v71.534v1.553v47.574h95.605v-47.574v-1.553v-74.104v-21.744
		v-60.501H466.715L466.715,348.807z"/>
</g>
</svg>
